<?xml version="1.0" standalone="no"?>
<!DOCTYPE svg PUBLIC "-//W3C//DTD SVG 1.1//EN" "http://www.w3.org/Graphics/SVG/1.1/DTD/svg11.dtd">
<svg xmlns="http://www.w3.org/2000/svg">
<defs >
<font id="FiraMono" horiz-adv-x="600" ><font-face
    font-family="Fira Mono"
    units-per-em="1000"
    panose-1="2 11 6 9 5 0 0 2 0 4"
    ascent="1050"
    descent="-500"
    alphabetic="0" />
<glyph unicode=" " glyph-name="space" />
<glyph unicode="!" glyph-name="exclam" d="M230 58Q230 87 250 107T299 127Q329 127 349 107T369 58Q369 29 349 9T299 -12Q270 -12 250 8T230 58ZM258 230L247 689H349L339 230H258Z" />
<glyph unicode="&quot;" glyph-name="quotedbl" d="M176 477L160 739H270L254 477H176ZM346 477L330 739H440L424 477H346Z" />
<glyph unicode="#" glyph-name="numbersign" d="M462 455L433 236H512V167H423L402 0H324L346 167H206L184 0H106L128 167H51V236H137L167 455H88V525H176L198 689H276L253 525H394L416 689H494L471 525H549V455H462ZM215 236H355L385 455H244L215 236Z" />
<glyph unicode="$" glyph-name="dollar" d="M277 -11Q205 -6 153 22T66 83L119 142Q151 110 189 90T277 65V334Q186 364 139 410T92 526Q92 557 103 586T138 639T196 678T277 699V849H346V699Q406 693 452 671T531 619L477 563Q419 616 346 625V403Q385 390 420
373T482 330T524 271T540 191Q540 155 528 122T491 62T431 17T346 -8V-154H277V-11ZM443 188Q443 229 422 258T346 310V69Q443 89 443 188ZM187 529Q187 495 205 472T277 426V623Q237 616 212 593T187 529Z" />
<glyph unicode="%" glyph-name="percent" d="M107 548Q107 531 110 514T121 484T142 462T177 454Q198 454 211 462T231 483T240 513T243 549Q243 567 241 584T231 614T211 636T177 644Q156 644 143 636T121 615T110 584T107 548ZM323 549Q323 514 312 486T282
438T235 408T177 397Q145 397 119 407T73 438T42 485T31 548Q31 583 42 611T72 660T118 690T177 701Q208 701 235 691T281 661T312 613T323 549ZM354 140Q354 122 357 105T367 75T388 53T423 44Q444 44 457 52T478 73T489 104T492 140Q492 158 489 174T479 204T458
226T423 234Q402 234 389 226T368 205T357 175T354 140ZM568 140Q568 105 557 77T527 29T481 -1T423 -12Q359 -12 318 28T276 140Q276 210 317 251T423 292Q454 292 481 282T527 251T557 203T568 140ZM92 -28L36 7L499 708L556 673L92 -28Z" />
<glyph unicode="&amp;" glyph-name="ampersand" d="M208 390Q141 406 115 446T88 535Q88 568 101 598T139 650T199 686T279 700Q326 700 366 685T449 625L395 576Q369 605 343 618T280 632Q229 632 204 605T178 533Q178 510 187 490T212 455T250 430T298 421H574V351H487V80Q475
65 457 49T414 20T354 -3T277 -12Q218 -12 176 5T106 52T65 118T52 195Q52 273 92 322T208 387V390ZM280 61Q320 61 351 74T403 111V351H286Q248 351 221 337T177 301T151 252T142 199Q142 172 150 147T174 103T217 73T280 61Z" />
<glyph unicode="&apos;" glyph-name="quotesingle" d="M261 477L245 739H355L339 477H261Z" />
<glyph unicode="(" glyph-name="parenleft" d="M258 350Q258 270 272 208T310 93T367 -6T439 -102L380 -142Q338 -92 299 -43T229 65T181 192T162 350Q162 439 180 508T229 635T298 742T380 842L439 802Q400 753 367 707T310 608T272 493T258 350Z" />
<glyph unicode=")" glyph-name="parenright" d="M342 350Q342 431 328 493T290 607T233 706T161 802L220 842Q262 792 301 743T371 635T419 508T438 350Q438 261 420 192T371 65T302 -42T220 -142L161 -102Q200 -53 233 -7T290 92T328 207T342 350Z" />
<glyph unicode="*" glyph-name="asterisk" d="M329 585L469 645L496 560L349 528L454 419L381 364L301 494L226 362L151 413L252 528L104 560L131 645L270 585L255 738H345L329 585Z" />
<glyph unicode="+" glyph-name="plus" d="M257 349V499H341V349H488V273H341V124H257V273H112V349H257Z" />
<glyph unicode="," glyph-name="comma" d="M384 86Q384 66 379 47T362 1L282 -182H203L251 17Q235 28 226 46T217 86Q217 121 241 145T300 169Q336 169 360 145T384 86Z" />
<glyph unicode="-" glyph-name="hyphen" d="M123 274V352H477V274H123Z" />
<glyph unicode="." glyph-name="period" d="M209 79Q209 98 216 114T235 143T263 162T299 169Q338 169 364 143T390 79Q390 41 364 15T299 -12Q261 -12 235 14T209 79Z" />
<glyph unicode="/" glyph-name="slash" d="M124 -104L50 -71L477 810L550 775L124 -104Z" />
<glyph unicode="0" glyph-name="zero" d="M300 61Q331 61 356 77T398 127T424 215T433 345Q433 496 398 562T300 628Q269 628 245 612T203 562T176 474T167 345Q167 269 176 216T202 128T244 77T300 61ZM300 -12Q187 -12 130 80T72 345Q72 517 129 609T300 701Q413
701 470 609T528 345Q528 172 471 80T300 -12ZM235 345Q235 372 253 391T300 410Q329 410 347 391T366 345Q366 317 348 298T300 279Q272 279 254 298T235 345Z" />
<glyph unicode="1" glyph-name="one" d="M297 588L132 488L88 552L308 689H389V74H530V0H128V74H297V588Z" />
<glyph unicode="2" glyph-name="two" d="M489 511Q489 466 471 420T416 322T323 210T191 77H504L493 0H83V73Q172 161 232 225T328 340T379 429T394 508Q394 564 361 594T277 624Q234 624 203 607T139 550L75 595Q116 646 167 673T282 701Q329 701 367 687T433
648T474 587T489 511Z" />
<glyph unicode="3" glyph-name="three" d="M515 198Q515 153 498 115T449 49T372 4T273 -12Q213 -12 156 10T58 81L118 131Q147 96 187 80T270 63Q340 63 379 99T419 199Q419 235 409 259T380 299T335 320T279 327H226L237 398H273Q298 398 321 405T362 426T390
463T401 515Q401 542 391 563T364 599T324 620T274 628Q229 628 196 613T129 565L79 620Q124 662 174 681T279 701Q328 701 368 687T435 650T478 595T493 528Q493 496 482 470T453 422T412 388T362 369V365Q390 363 417 352T467 319T502 268T515 198Z" />
<glyph unicode="4" glyph-name="four" d="M440 165V0H351V165H69V230L271 701L348 669L166 238H351L360 418H440V238H527V165H440Z" />
<glyph unicode="5" glyph-name="five" d="M519 220Q519 170 502 128T453 55T378 6T281 -12Q221 -12 169 8T77 77L139 129Q168 94 203 79T280 63Q347 63 385 106T423 221Q423 261 414 288T387 333T347 357T297 365Q274 365 249 359T201 342H129V689H492L481 616H217V413Q244
427 272 432T324 437Q367 437 403 422T464 379T504 310T519 220Z" />
<glyph unicode="6" glyph-name="six" d="M438 598Q415 615 393 621T347 628Q311 628 279 611T222 560T182 476T165 361Q198 405 242 427T332 449Q369 449 404 436T466 395T509 325T526 225Q526 169 509 125T462 51T393 4T309 -12Q246 -12 201 14T128 84T86 186T73
309Q73 396 92 468T147 592T234 672T348 701Q384 701 415 692T478 660L438 598ZM315 376Q273 376 233 350T166 283Q168 179 202 120T309 61Q371 61 401 104T432 222Q432 265 423 294T398 342T361 368T315 376Z" />
<glyph unicode="7" glyph-name="seven" d="M234 -10L148 16L415 614H94V689H508V620L234 -10Z" />
<glyph unicode="8" glyph-name="eight" d="M509 530Q509 483 479 443T389 372Q458 342 497 295T537 185Q537 143 521 107T473 45T398 3T298 -12Q242 -12 198 3T124 44T79 106T63 183Q63 246 100 289T202 360Q145 389 118 431T91 528Q91 574 110 607T161 661T228
691T300 701Q338 701 375 691T442 661T490 608T509 530ZM441 184Q441 218 428 240T392 279T335 309T262 336Q241 326 223 313T190 282T168 239T159 184Q159 127 194 94T298 61Q368 61 404 96T441 184ZM181 527Q181 474 220 445T327 393Q419 446 419 526Q419 573
388 602T300 631Q243 631 212 604T181 527Z" />
<glyph unicode="9" glyph-name="nine" d="M130 47Q264 82 342 156T429 335L427 336Q406 302 367 278T270 253Q228 253 192 269T128 314T86 383T71 474Q71 526 89 568T139 640T212 685T300 701Q355 701 397 681T469 626T513 541T528 433Q528 333 505 260T434 132T316
41T151 -22L130 47ZM432 420Q431 526 400 577T298 628Q241 628 203 590T164 472Q164 434 174 407T200 361T239 335T287 326Q338 326 372 351T432 420Z" />
<glyph unicode=":" glyph-name="colon" d="M216 72Q216 89 222 104T240 130T266 148T299 155Q335 155 359 131T383 72Q383 37 359 13T299 -12Q264 -12 240 12T216 72ZM216 431Q216 466 240 490T299 514Q335 514 359 490T383 431Q383 396 359 372T299 347Q281 347
266 353T240 371T223 398T216 431Z" />
<glyph unicode=";" glyph-name="semicolon" d="M216 431Q216 466 240 490T299 514Q335 514 359 490T383 431Q383 396 359 372T299 347Q281 347 266 353T240 371T223 398T216 431ZM383 86Q383 66 378 47T361 1L281 -182H202L250 17Q234 28 225 46T216 86Q216 121
240 145T299 169Q335 169 359 145T383 86Z" />
<glyph unicode="&lt;" glyph-name="less" d="M471 596L515 527L165 313L515 98L467 31L86 269V358L471 596Z" />
<glyph unicode="=" glyph-name="equal" d="M102 176V254H498V176H102ZM102 368V446H498V368H102Z" />
<glyph unicode="&gt;" glyph-name="greater" d="M515 358V269L134 31L86 98L436 313L86 527L130 596L515 358Z" />
<glyph unicode="?" glyph-name="question" d="M319 230H228V268Q228 309 241 337T273 386T316 423T358 456T391 492T404 539Q404 581 372 603T290 625Q255 625 218 608T150 553L86 601Q130 652 183 676T299 701Q346 701 383 688T447 653T486 603T500 545Q500 505
487 479T453 433T410 398T366 364T333 323T319 263V230ZM207 58Q207 87 227 107T276 127Q306 127 326 107T346 58Q346 29 326 9T276 -12Q247 -12 227 8T207 58Z" />
<glyph unicode="@" glyph-name="at" d="M8 591Q76 650 145 675T284 701Q380 701 439 666T531 572T575 439T587 286Q587 191 581 121T559 3T513 -67T439 -91Q408 -91 386 -76T349 -40T328 6T321 51H317Q310 33 299 16T271 -15T232 -37T180 -46Q139 -46 110 -29T63
19T37 91T28 183Q28 314 79 378T226 442Q261 442 294 435T370 404V108Q370 69 375 44T389 5T410 -14T437 -20Q459 -20 471 3T489 66T496 162T497 284Q497 356 489 418T458 527T394 599T284 625Q234 625 178 607T58 533L8 591ZM229 376Q164 376 140 328T116 183Q116
147 119 117T132 66T155 33T192 21Q217 21 234 30T262 53T279 81T290 107V362Q262 376 229 376Z" />
<glyph unicode="A" glyph-name="A" d="M430 173H165L112 0H17L240 689H360L583 0H483L430 173ZM188 250H407L300 603H296L188 250Z" />
<glyph unicode="B" glyph-name="B" d="M443 195Q443 233 432 257T401 296T355 316T299 322H187V77H295Q320 77 346 81T394 99T429 135T443 195ZM416 509Q416 566 381 590T284 614H187V398H292Q352 398 384 424T416 509ZM543 197Q543 140 521 103T461 42T377 10T282
0H92V689H267Q313 689 357 681T436 653T492 600T513 515Q513 482 503 457T475 413T437 384T393 368V364Q419 359 445 349T494 319T529 270T543 197Z" />
<glyph unicode="C" glyph-name="C" d="M358 68Q415 68 452 86T516 127L565 65Q533 35 481 12T354 -12Q289 -12 234 11T139 79T77 191T55 345Q55 432 79 498T143 610T238 678T353 701Q421 701 467 683T555 633L503 572Q471 598 435 610T359 623Q318 623 281 609T216
562T172 476T156 345Q156 270 171 218T214 132T278 84T358 68Z" />
<glyph unicode="D" glyph-name="D" d="M454 348Q454 436 436 488T388 568T322 604T251 613H175V75H252Q289 75 325 86T389 128T436 211T454 348ZM555 348Q555 240 527 172T453 66T352 14T241 0H80V689H230Q291 689 349 676T453 626T527 522T555 348Z" />
<glyph unicode="E" glyph-name="E" d="M207 613V388H461V312H207V75H518V0H112V689H510L499 613H207Z" />
<glyph unicode="F" glyph-name="F" d="M220 613V378H487V303H220V0H125V689H536L525 613H220Z" />
<glyph unicode="G" glyph-name="G" d="M315 -12Q252 -12 202 10T117 77T62 189T43 345Q43 434 67 500T132 611T225 678T333 701Q368 701 396 696T448 681T492 657T534 624L478 566Q446 595 412 609T334 623Q298 623 264 609T203 562T160 476T144 345Q144 271 155
218T189 131T245 82T322 66Q390 66 448 98V302H318L307 379H542V49Q495 23 442 6T315 -12Z" />
<glyph unicode="H" glyph-name="H" d="M425 0V323H175V0H80V689H175V401H425V689H520V0H425Z" />
<glyph unicode="I" glyph-name="I" d="M500 614H348V75H500V0H100V75H252V614H100V689H500V614Z" />
<glyph unicode="J" glyph-name="J" d="M450 186Q450 74 373 -10T131 -139L108 -68Q172 -47 218 -24T295 30T340 100T355 190V614H110V689H450V186Z" />
<glyph unicode="K" glyph-name="K" d="M195 0H100V689H195V0ZM200 368L462 689H570L309 374L589 0H472L200 368Z" />
<glyph unicode="L" glyph-name="L" d="M131 0V689H226V83H539L528 0H131Z" />
<glyph unicode="M" glyph-name="M" d="M481 0L461 353Q459 403 458 454T456 541Q456 557 456 568T457 584H454L345 123H254L140 584H136V423Q136 386 134 353L117 0H29L68 689H194L300 229H304L405 689H532L571 0H481Z" />
<glyph unicode="N" glyph-name="N" d="M390 0L158 583H154Q155 577 157 553T161 494T165 418T167 336V0H80V689H207L442 103H446Q445 109 443 131T439 187T435 263T433 353V689H520V0H390Z" />
<glyph unicode="O" glyph-name="O" d="M556 344Q556 265 540 200T492 87T411 14T300 -12Q237 -12 189 13T109 85T60 197T44 343Q44 422 60 487T108 600T189 674T300 701Q363 701 411 676T491 603T540 490T556 344ZM457 344Q457 480 421 551T300 623Q216 623 180
551T143 343Q143 206 180 136T300 66Q384 66 420 136T457 344Z" />
<glyph unicode="P" glyph-name="P" d="M458 475Q458 514 446 540T413 583T363 607T300 615H205V328H300Q334 328 363 334T413 357T446 402T458 475ZM559 476Q559 416 539 374T484 304T400 265T292 253H205V0H110V689H290Q415 689 487 637T559 476Z" />
<glyph unicode="Q" glyph-name="Q" d="M556 344Q556 235 526 154T422 30L423 27Q456 20 482 8T530 -23T567 -70T597 -136L501 -173Q485 -133 467 -103T425 -52T368 -21T290 -10Q230 -10 184 15T107 86T60 197T44 343Q44 422 60 487T108 600T189 674T300 701Q363
701 411 676T491 603T540 490T556 344ZM457 344Q457 480 421 551T300 623Q216 623 180 551T143 343Q143 206 180 136T300 66Q384 66 420 136T457 344Z" />
<glyph unicode="R" glyph-name="R" d="M540 494Q540 455 528 424T493 370T440 330T375 304L577 0H464L280 292H192V0H97V689H278Q408 689 474 640T540 494ZM439 494Q439 559 402 587T287 615H192V365H288Q360 365 399 394T439 494Z" />
<glyph unicode="S" glyph-name="S" d="M540 192Q540 147 523 110T474 45T395 3T289 -12Q208 -12 146 11T40 77L95 138Q131 104 177 85T286 66Q316 66 344 73T393 96T428 135T441 189Q441 213 434 231T411 265T365 293T293 320Q243 335 203 353T135 396T93 450T78
521Q78 561 95 594T142 651T213 688T305 701Q377 701 431 680T528 621L474 561Q437 593 395 608T309 623Q281 623 257 617T214 599T186 569T175 525Q175 503 183 487T210 456T260 428T338 401Q379 388 416 373T480 334T524 276T540 192Z" />
<glyph unicode="T" glyph-name="T" d="M346 609V0H251V609H38V689H562L552 609H346Z" />
<glyph unicode="U" glyph-name="U" d="M531 224Q531 171 515 128T469 54T396 5T299 -12Q245 -12 202 5T130 53T85 128T69 224V689H164V228Q164 147 198 108T299 68Q435 68 435 228V689H531V224Z" />
<glyph unicode="V" glyph-name="V" d="M304 109L482 689H578L351 0H249L22 689H124L300 109H304Z" />
<glyph unicode="W" glyph-name="W" d="M494 0H374L300 503H296L211 0H86L4 689H99L151 109H155L246 609H356L430 112H434L509 689H596L494 0Z" />
<glyph unicode="X" glyph-name="X" d="M45 689H153L295 433H299L447 689H549L352 372L572 0H464L297 302H293L129 0H27L239 367L45 689Z" />
<glyph unicode="Y" glyph-name="Y" d="M348 265V0H252V264L20 689H125L301 352H304L481 689H580L348 265Z" />
<glyph unicode="Z" glyph-name="Z" d="M174 81H531L520 0H68V76L428 609H104V689H531V612L174 81Z" />
<glyph unicode="[" glyph-name="bracketleft" d="M181 -116V816H418V739H268V-40H418V-116H181Z" />
<glyph unicode="\" glyph-name="backslash" d="M50 775L123 810L550 -71L476 -104L50 775Z" />
<glyph unicode="]" glyph-name="bracketright" d="M182 -116V-40H332V739H182V816H419V-116H182Z" />
<glyph unicode="^" glyph-name="asciicircum" d="M259 840H341L530 527H432L299 760L167 527H70L259 840Z" />
<glyph unicode="_" glyph-name="underscore" d="M-3 -182V-103H603V-182H-3Z" />
<glyph unicode="`" glyph-name="grave" d="M390 638L181 722L228 800L418 687L390 638Z" />
<glyph unicode="a" glyph-name="a" d="M482 119Q482 87 492 73T524 52L502 -12Q467 -7 441 10T402 62Q374 24 329 6T236 -12Q156 -12 109 32T62 151Q62 233 127 277T313 321H390V362Q390 418 358 441T267 464Q241 464 206 458T129 437L105 505Q154 523 198 531T281
539Q382 539 432 494T482 367V119ZM261 57Q299 57 333 76T390 130V260H318Q233 260 198 232T163 155Q163 57 261 57Z" />
<glyph unicode="b" glyph-name="b" d="M189 460Q218 498 255 518T338 539Q390 539 427 520T489 464T524 377T535 264Q535 204 522 154T482 66T416 9T326 -12Q235 -12 184 54L178 0H97V739L189 750V460ZM304 61Q367 61 401 110T436 264Q436 367 406 416T316 466Q274
466 242 441T189 384V127Q209 96 239 79T304 61Z" />
<glyph unicode="c" glyph-name="c" d="M336 66Q369 66 404 76T471 111L515 48Q478 18 429 3T335 -12Q275 -12 229 7T150 62T102 148T85 261Q85 321 102 371T151 459T229 518T336 539Q387 539 432 525T515 480L470 418Q438 442 405 452T336 463Q269 463 227 414T184
261Q184 209 195 172T227 112T275 77T336 66Z" />
<glyph unicode="d" glyph-name="d" d="M296 466Q233 466 199 416T164 263Q164 160 195 111T286 61Q328 61 359 85T411 142V401Q390 432 361 449T296 466ZM272 539Q358 539 411 478V750L503 739V0H422L414 68Q385 27 348 8T265 -12Q214 -12 176 8T114 64T77 150T65
263Q65 323 79 373T119 460T184 518T272 539Z" />
<glyph unicode="e" glyph-name="e" d="M171 232Q177 144 219 104T322 63Q358 63 393 73T462 112L504 51Q467 22 419 5T320 -12Q261 -12 216 8T139 64T91 150T75 263Q75 323 91 373T137 460T209 518T305 539Q409 539 467 470T526 279Q526 265 526 253T524 232H171ZM305
466Q251 466 214 426T171 300H437Q435 382 401 424T305 466Z" />
<glyph unicode="f" glyph-name="f" d="M401 750Q446 750 481 743T548 721L519 654Q493 665 465 670T406 676Q298 676 298 590V487H476L466 416H298V0H206V416H82V487H206V589Q206 626 220 655T261 706T323 738T401 750Z" />
<glyph unicode="g" glyph-name="g" d="M141 -25Q137 -33 135 -43T132 -66Q132 -101 167 -121T282 -141Q326 -141 355 -135T401 -117T426 -92T434 -60Q434 -27 408 -10T308 11Q208 15 156 39T104 118Q104 143 117 166T157 207Q117 230 95 268T73 354Q73 393 87
427T129 485T196 524T283 539Q326 539 361 542T425 552T479 567T525 586L552 503Q519 492 482 490T404 487V484Q443 466 465 432T488 353Q488 315 474 283T434 226T370 189T285 175Q267 175 248 177T212 184Q202 176 196 165T190 143Q190 131 195 122T214 107T253
97T320 92Q420 89 473 53T527 -55Q527 -96 508 -126T455 -175T378 -204T282 -213Q220 -213 176 -204T104 -177T63 -136T50 -83Q50 -65 53 -46T70 -6L141 -25ZM167 354Q167 302 198 269T283 236Q337 236 367 268T397 355Q397 412 368 442T283 473Q228 473 198 439T167
354Z" />
<glyph unicode="h" glyph-name="h" d="M97 0V738L189 748V460Q221 498 265 518T356 539Q433 539 468 498T504 383V0H412V377Q412 425 391 446T325 467Q304 467 284 460T247 440T214 413T189 382V0H97Z" />
<glyph unicode="i" glyph-name="i" d="M370 71H517V0H117V71H278V456H122V527H370V71ZM389 715Q389 688 371 670T324 652Q295 652 278 670T260 715Q260 741 277 759T324 777Q353 777 371 759T389 715Z" />
<glyph unicode="j" glyph-name="j" d="M378 62Q378 5 358 -38T303 -115T221 -171T118 -213L90 -142Q127 -128 162 -112T225 -72T269 -17T286 56V456H115V527H378V62ZM387 715Q387 688 369 670T322 652Q293 652 276 670T258 715Q258 741 275 759T322 777Q351 777
369 759T387 715Z" />
<glyph unicode="k" glyph-name="k" d="M97 0V739L189 750V0H97ZM198 288L420 527H535L310 290L561 0H443L198 288Z" />
<glyph unicode="l" glyph-name="l" d="M496 16Q477 5 442 -3T368 -12Q295 -12 252 28T208 142V668H47V739H300V134Q300 96 323 80T385 64Q406 64 428 69T472 82L496 16Z" />
<glyph unicode="m" glyph-name="m" d="M132 0H48V527H119L125 467Q147 498 173 518T239 539Q269 539 295 526T333 470Q355 501 382 520T449 539Q469 539 487 533T520 511T543 466T552 392V0H468V378Q468 425 463 446T429 467Q406 467 384 453T341 407V0H259V378Q259
425 253 446T219 467Q196 467 175 453T132 407V0Z" />
<glyph unicode="n" glyph-name="n" d="M97 0V527H176L183 455Q215 496 262 517T356 539Q433 539 468 498T504 383V0H412V323Q412 362 409 389T397 433T371 459T325 467Q304 467 284 460T247 440T214 413T189 382V0H97Z" />
<glyph unicode="o" glyph-name="o" d="M432 264Q432 367 400 416T301 465Q235 465 202 416T168 263Q168 160 201 111T300 62Q366 62 399 111T432 264ZM70 263Q70 324 85 375T129 462T201 519T301 539Q357 539 400 520T472 464T515 378T530 264Q530 203 515 152T471
65T399 8T300 -12Q244 -12 201 7T129 63T85 149T70 263Z" />
<glyph unicode="p" glyph-name="p" d="M97 -213V527H176L183 455Q212 496 252 517T339 539Q391 539 427 520T487 464T520 377T530 264Q530 204 518 154T480 66T416 9T327 -12Q239 -12 189 48V-202L97 -213ZM305 63Q368 63 400 111T432 264Q432 367 404 416T316
466Q274 466 242 441T189 384V127Q209 96 239 80T305 63Z" />
<glyph unicode="q" glyph-name="q" d="M295 466Q168 466 168 263Q168 160 197 112T285 63Q327 63 358 86T411 142V401Q391 432 361 449T295 466ZM503 -213L411 -202V64Q382 25 345 7T264 -12Q211 -12 174 7T114 63T81 150T70 263Q70 323 83 373T121 460T185 518T272
539Q363 539 417 471L424 527H503V-213Z" />
<glyph unicode="r" glyph-name="r" d="M452 0H92V71H213V456H92V527H293L304 426Q327 482 367 510T454 539Q473 539 487 538T524 531L507 440Q487 445 474 447T443 449Q418 449 396 438T356 407T325 362T305 309V71H452V0Z" />
<glyph unicode="s" glyph-name="s" d="M275 62Q334 62 367 83T401 142Q401 161 397 175T379 200T341 220T275 240Q236 250 204 262T149 292T114 334T101 393Q101 426 115 453T157 499T221 528T305 539Q362 539 407 524T488 483L447 421Q418 442 384 454T307 466Q245
466 221 449T196 399Q196 382 202 371T225 349T266 330T331 310Q369 299 400 287T453 257T488 213T500 149Q500 106 481 76T431 26T359 -3T275 -12Q202 -12 149 9T61 60L112 118Q143 92 185 77T275 62Z" />
<glyph unicode="t" glyph-name="t" d="M532 27Q504 9 465 -1T387 -12Q299 -12 253 33T207 151V457H87V527H207V646L299 657V527H480L469 457H299V152Q299 107 321 86T397 64Q426 64 451 71T497 90L532 27Z" />
<glyph unicode="u" glyph-name="u" d="M189 527V155Q189 104 209 82T274 60Q316 60 353 84T411 141V527H503V0H424L417 70Q386 30 341 9T249 -12Q172 -12 135 29T97 144V527H189Z" />
<glyph unicode="v" glyph-name="v" d="M353 0H246L57 527H155L300 85H303L448 527H543L353 0Z" />
<glyph unicode="w" glyph-name="w" d="M494 0H369L304 373H300L232 0H110L16 527H108L172 70H176L253 460H356L428 72H432L496 527H584L494 0Z" />
<glyph unicode="x" glyph-name="x" d="M295 220L156 0H52L245 278L75 527H183L299 337H303L420 527H524L355 282L548 0H437L299 220H295Z" />
<glyph unicode="y" glyph-name="y" d="M358 -3Q344 -45 324 -81T276 -144T208 -190T116 -213L103 -141Q143 -134 170 -123T217 -94T248 -54T271 0H240L58 527H156L300 74H304L447 527H542L358 -3Z" />
<glyph unicode="z" glyph-name="z" d="M211 77H501L490 0H99V69L388 449H122V527H498V457L211 77Z" />
<glyph unicode="{" glyph-name="braceleft" d="M146 387Q198 387 222 413T246 491V677Q246 724 261 754T304 803T370 828T453 836V765Q399 765 366 749T333 687V488Q333 423 305 392T228 352V348Q277 340 305 310T333 212V13Q333 -33 366 -49T453 -65V-136Q408
-136 370 -129T305 -103T262 -55T246 23V208Q246 260 222 286T146 313V387Z" />
<glyph unicode="|" glyph-name="bar" d="M258 807H341V-102H258V807Z" />
<glyph unicode="}" glyph-name="braceright" d="M454 313Q402 313 378 287T354 208V23Q354 -24 339 -54T296 -103T230 -128T147 -136V-65Q201 -65 234 -49T267 13V212Q267 279 295 309T372 348V352Q323 360 295 391T267 488V687Q267 732 234 748T147 765V836Q192
836 230 829T295 803T338 755T354 677V491Q354 439 378 413T454 387V313Z" />
<glyph unicode="~" glyph-name="asciitilde" d="M395 226Q360 226 334 241T287 276T246 310T202 326Q170 326 147 302T104 242L41 273Q53 296 67 319T101 361T146 392T205 404Q242 404 268 389T316 354T356 320T398 304Q429 304 452 328T496 388L559 356Q547 333
533 310T499 268T454 238T395 226Z" />
<glyph unicode="&#xa0;" glyph-name="uni00A0" />
<glyph unicode="&#xa1;" glyph-name="exclamdown" d="M369 430Q369 401 349 381T299 361Q270 361 250 381T230 430Q230 459 250 479T299 500Q328 500 348 480T369 430ZM338 258L352 -198H247L260 258H338Z" />
<glyph unicode="&#xa2;" glyph-name="cent" d="M338 66Q367 66 394 75T453 110L497 46Q468 22 438 10T375 -7V-154H296V-6Q200 7 152 77T103 261Q103 315 115 361T152 444T212 503T297 533V684H375V534Q407 530 437 518T497 482L452 422Q420 446 394 454T338 463Q274
463 238 414T202 261Q202 157 238 112T338 66Z" />
<glyph unicode="&#xa3;" glyph-name="sterling" d="M153 514Q153 554 166 588T204 648T265 687T347 701Q403 701 449 681T529 613L468 567Q443 598 415 611T351 625Q245 625 245 507V389H449V328H245V209Q245 168 235 134T189 81V77H520L509 0H71V73Q101 82 117
95T142 125T151 162T153 206V328H72V389H153V514Z" />
<glyph unicode="&#xa4;" glyph-name="currency" d="M178 521Q231 554 301 554Q372 554 422 521L510 609L566 553L480 466Q497 441 506 410T516 342Q516 304 506 273T479 216L566 130L510 74L421 161Q371 129 301 129Q230 129 178 161L90 73L34 129L122 217Q105
243 96 274T87 342Q87 378 96 409T121 465L34 554L90 610L178 521ZM301 202Q363 202 394 239T425 342Q425 408 394 445T301 482Q239 482 208 445T176 342Q176 276 207 239T301 202Z" />
<glyph unicode="&#xa5;" glyph-name="yen" d="M227 346L36 689H139L301 376H305L467 689H564L372 346H489V285H348V201H489V140H348V0H252V140H113V201H252V285H113V346H227Z" />
<glyph unicode="&#xa6;" glyph-name="brokenbar" d="M258 807H341V451H258V807ZM258 254H341V-102H258V254Z" />
<glyph unicode="&#xa7;" glyph-name="section" d="M103 319Q103 360 127 392T184 444Q156 465 141 492T125 553Q125 587 140 614T181 661T242 690T317 701Q372 701 412 686T487 647L445 586Q415 606 385 617T313 628Q271 628 246 610T220 560Q220 543 225 531T243
509T281 488T343 464Q423 438 459 404T496 311Q496 269 473 237T416 185Q443 165 459 138T475 76Q475 42 461 15T420 -32T358 -61T279 -71Q223 -71 181 -56T105 -16L147 45Q177 24 208 13T282 2Q324 2 352 20T380 70Q380 86 375 98T357 121T319 142T257 165Q177
192 140 225T103 319ZM193 331Q193 310 200 296T226 270T277 246T361 215Q383 234 395 256T407 299Q407 319 400 332T374 358T323 382T239 414Q216 395 205 373T193 331Z" />
<glyph unicode="&#xa8;" glyph-name="dieresis" d="M195 654Q170 654 154 670T137 711Q137 735 153 751T195 768Q219 768 235 752T252 711Q252 687 236 671T195 654ZM404 654Q380 654 364 670T347 711Q347 735 363 751T404 768Q429 768 445 752T462 711Q462 687
446 671T404 654Z" />
<glyph unicode="&#xa9;" glyph-name="copyright" d="M309 308Q335 308 355 317T393 342L427 292Q406 273 377 259T306 245Q234 245 188 293T142 435Q142 481 155 516T190 576T242 612T305 625Q343 625 369 615T422 585L385 536Q349 565 309 565Q271 565 245 535T218
435Q218 369 243 339T309 308ZM301 174Q355 174 395 194T462 250T502 332T515 434Q515 488 502 536T462 619T395 675T301 696Q247 696 207 676T139 620T99 536T86 434Q86 380 99 333T139 250T206 195T301 174ZM301 121Q236 121 185 145T99 212T46 312T27 434Q27
499 45 556T99 656T185 723T301 748Q366 748 416 724T502 657T555 557T573 434Q573 369 555 312T502 213T417 146T301 121Z" />
<glyph unicode="&#xaa;" glyph-name="ordfeminine" d="M459 415Q459 392 467 381T492 365L472 307Q440 311 419 324T386 366Q361 337 326 322T252 307Q183 307 142 343T100 440Q100 507 157 542T317 578H375V606Q375 648 350 665T278 682Q257 682 225 677T157
658L133 720Q178 737 217 743T290 750Q377 750 418 713T459 609V415ZM273 370Q302 370 329 384T375 425V519H320Q251 519 221 500T191 444Q191 407 212 389T273 370ZM105 0V79H500V0H105Z" />
<glyph unicode="&#xab;" glyph-name="guillemotleft" d="M309 86L254 51L79 260V325L254 535L309 500L176 293L309 86ZM520 86L465 51L289 260V325L465 535L520 500L387 293L520 86Z" />
<glyph unicode="&#xac;" glyph-name="logicalnot" d="M488 131H405V274H112V351H488V131Z" />
<glyph unicode="&#xad;" glyph-name="uni00AD" d="M143 274V352H457V274H143Z" />
<glyph unicode="&#xae;" glyph-name="registered" d="M300 236Q247 236 200 256T119 310T64 391T44 491Q44 544 64 591T118 673T200 728T300 748Q353 748 399 728T480 673T535 591T555 491Q555 438 535 392T481 311T400 256T300 236ZM300 285Q343 285 379 301T443
345T485 410T500 491Q500 534 485 572T443 638T380 682T300 699Q257 699 220 683T156 638T114 572T99 491Q99 448 114 411T156 345T220 301T300 285ZM409 551Q409 519 391 500T343 472L428 354H360L286 462H258V354H200V636H285Q409 636 409 551ZM349 551Q349 591
287 591H258V507H289Q318 507 333 517T349 551Z" />
<glyph unicode="&#xaf;" glyph-name="overscore" d="M436 682H163V751H436V682Z" />
<glyph unicode="&#xb0;" glyph-name="degree" d="M230 497Q265 497 291 520T317 592Q317 640 291 663T230 687Q196 687 170 664T143 593Q143 544 169 521T230 497ZM230 434Q199 434 170 444T117 475T80 525T66 593Q66 630 80 659T117 709T169 739T230 750Q261
750 291 740T343 709T380 660T394 592Q394 554 380 525T344 475T291 445T230 434Z" />
<glyph unicode="&#xb1;" glyph-name="plusminus" d="M343 274V150H257V274H112V350H257V500H343V350H488V274H343ZM112 0V78H488V0H112Z" />
<glyph unicode="&#xb2;" glyph-name="twosuperior" d="M436 599Q436 575 428 556T400 519T348 483T270 441H446L437 378H159V433Q218 469 256 492T316 533T346 565T355 595Q355 617 340 629T298 642Q274 642 251 632T206 595L153 635Q214 705 302 705Q367 705
401 676T436 599Z" />
<glyph unicode="&#xb3;" glyph-name="threesuperior" d="M453 473Q453 428 413 400T298 372Q257 372 217 385T146 430L194 470Q217 450 244 441T300 431Q338 431 355 443T373 479Q373 505 356 515T304 526H257L265 571H300Q329 571 345 579T361 608Q361 647 302
647Q275 647 250 639T199 610L158 653Q193 682 230 693T308 705Q370 705 404 681T439 619Q439 593 424 577T375 555V552Q411 547 432 529T453 473Z" />
<glyph unicode="&#xb4;" glyph-name="acute" d="M181 687L371 799L418 722L209 638L181 687Z" />
<glyph unicode="&#xb5;" glyph-name="mu" d="M178 527V231Q178 192 180 162T191 110T217 78T263 67Q308 67 341 90T396 144V527H488V170Q488 118 496 75T514 0L428 -12Q420 2 414 27T405 72Q382 34 344 11T267 -12Q200 -12 170 30L166 29Q171 8 174 -14T177 -56V-202L86
-213V527H178Z" />
<glyph unicode="&#xb6;" glyph-name="paragraph" d="M476 -213V615H367V-202L284 -213V286Q223 287 178 302T102 345T56 408T40 486Q40 529 56 566T104 630T183 673T294 689H559V-202L476 -213Z" />
<glyph unicode="&#xb7;" glyph-name="middot" d="M209 338Q209 357 216 373T235 402T263 421T299 428Q338 428 364 402T390 338Q390 300 364 274T299 247Q261 247 235 273T209 338Z" />
<glyph unicode="&#xb8;" glyph-name="cedilla" d="M338 -141Q338 -115 315 -107T251 -99L260 16H321V-56Q371 -61 393 -85T415 -141Q415 -166 405 -184T378 -215T338 -234T290 -241Q259 -241 232 -234T184 -216L212 -165Q226 -173 244 -177T279 -181Q305 -181
321 -172T338 -141Z" />
<glyph unicode="&#xb9;" glyph-name="onesuperior" d="M328 378V614L234 563L197 615L342 699H403V378H328Z" />
<glyph unicode="&#xba;" glyph-name="ordmasculine" d="M415 529Q415 608 385 645T300 682Q246 682 215 645T184 529Q184 449 215 412T300 375Q354 375 384 412T415 529ZM94 529Q94 578 108 618T150 688T215 733T300 750Q347 750 385 735T449 690T490 620T505
529Q505 480 491 439T450 369T385 324T300 307Q253 307 215 323T150 368T109 438T94 529ZM103 0V79H498V0H103Z" />
<glyph unicode="&#xbb;" glyph-name="guillemotright" d="M212 293L79 500L134 535L309 325V260L134 51L79 86L212 293ZM422 293L289 500L344 535L520 325V260L344 51L289 86L422 293Z" />
<glyph unicode="&#xbc;" glyph-name="onequarter" d="M525 56V0H449V56H270V106L404 331L469 305L356 117H449L456 202H525V117H579V56H525ZM158 378V614L64 563L27 615L172 699H233V378H158ZM293 183L261 239L796 495L827 439L293 183Z" />
<glyph unicode="&#xbd;" glyph-name="onehalf" d="M153 378V614L59 563L22 615L167 699H228V378H153ZM288 183L256 239L791 495L822 439L288 183ZM581 221Q581 197 573 178T545 141T493 105T415 63H591L582 0H304V55Q363 91 401 114T461 155T491 187T500 217Q500
239 485 251T443 264Q419 264 396 254T351 217L298 257Q359 327 447 327Q512 327 546 298T581 221Z" />
<glyph unicode="&#xbe;" glyph-name="threequarters" d="M318 473Q318 428 278 400T163 372Q122 372 82 385T11 430L59 470Q82 450 109 441T165 431Q203 431 220 443T238 479Q238 505 221 515T169 526H122L130 571H165Q194 571 210 579T226 608Q226 647 167 647Q140
647 115 639T64 610L23 653Q58 682 95 693T173 705Q235 705 269 681T304 619Q304 593 289 577T240 555V552Q276 547 297 529T318 473ZM299 183L267 239L802 495L833 439L299 183ZM532 56V0H456V56H277V106L411 331L476 305L363 117H456L463 202H532V117H586V56H532Z"
/>
<glyph unicode="&#xbf;" glyph-name="questiondown" d="M393 430Q393 401 373 381T323 361Q294 361 274 381T254 430Q254 459 274 479T323 500Q352 500 372 480T393 430ZM281 258H372V220Q372 179 359 151T327 102T284 65T242 32T209 -4T196 -51Q196 -93 228 -115T310
-137Q345 -137 382 -120T450 -65L514 -113Q470 -164 417 -188T301 -213Q254 -213 217 -200T153 -165T114 -115T100 -57Q100 -17 113 9T147 55T190 90T234 124T267 165T281 225V258Z" />
<glyph unicode="&#xc0;" glyph-name="Agrave" d="M430 173H165L112 0H17L240 689H360L583 0H483L430 173ZM188 250H407L300 603H296L188 250ZM644 755L435 837L483 914L671 804L644 755Z" />
<glyph unicode="&#xc1;" glyph-name="Aacute" d="M430 173H165L112 0H17L240 689H360L583 0H483L430 173ZM188 250H407L300 603H296L188 250ZM182 806L371 915L418 838L210 757L182 806Z" />
<glyph unicode="&#xc2;" glyph-name="Acircumflex" d="M430 173H165L112 0H17L240 689H360L583 0H483L430 173ZM188 250H407L300 603H296L188 250ZM174 759L134 804L270 915H331L466 804L427 759L300 840L174 759Z" />
<glyph unicode="&#xc3;" glyph-name="Atilde" d="M430 173H165L112 0H17L240 689H360L583 0H483L430 173ZM188 250H407L300 603H296L188 250ZM352 773Q330 773 315 780T287 797T265 813T242 821Q225 821 214 810T191 777L134 802Q149 837 176 864T247 891Q269
891 285 884T313 867L335 850Q345 843 357 843Q374 843 385 854T408 886L465 861Q449 826 422 800T352 773Z" />
<glyph unicode="&#xc4;" glyph-name="Adieresis" d="M430 173H165L112 0H17L240 689H360L583 0H483L430 173ZM188 250H407L300 603H296L188 250ZM194 769Q170 769 154 785T137 826Q137 850 153 866T194 882Q219 882 235 866T252 826Q252 801 236 785T194 769ZM404
769Q379 769 363 785T346 826Q346 850 362 866T404 882Q428 882 445 866T462 826Q462 801 445 785T404 769Z" />
<glyph unicode="&#xc5;" glyph-name="Aring" d="M430 173H165L112 0H17L240 689H360L583 0H483L430 173ZM188 250H407L300 603H296L188 250ZM246 845Q246 819 260 804T300 788Q324 788 338 803T353 845Q353 871 339 886T300 901Q275 901 261 886T246 845ZM414
845Q414 800 383 770T300 739Q249 739 218 769T186 845Q186 889 217 919T300 950Q351 950 382 920T414 845Z" />
<glyph unicode="&#xc6;" glyph-name="AE" d="M328 173H131L84 0H-12L187 689H566L555 614H325L374 387H557V312H388L438 75H607V0H363L328 173ZM153 250H312L243 605H238L153 250Z" />
<glyph unicode="&#xc7;" glyph-name="Ccedilla" d="M383 -141Q383 -115 360 -107T296 -99L303 -8Q248 0 203 27T124 98T73 205T55 345Q55 432 79 498T143 610T238 678T353 701Q421 701 467 683T555 633L503 572Q471 598 435 610T359 623Q318 623 281 609T216 562T172
476T156 345Q156 270 171 218T214 132T278 84T358 68Q415 68 452 86T516 127L565 65Q533 36 485 13T366 -12V-56Q416 -61 438 -85T460 -141Q460 -166 450 -184T423 -215T383 -234T335 -241Q304 -241 277 -234T229 -216L257 -165Q271 -173 289 -177T323 -181Q350
-181 366 -172T383 -141Z" />
<glyph unicode="&#xc8;" glyph-name="Egrave" d="M207 613V388H461V312H207V75H518V0H112V689H510L499 613H207ZM401 755L192 837L240 914L428 804L401 755Z" />
<glyph unicode="&#xc9;" glyph-name="Eacute" d="M207 613V388H461V312H207V75H518V0H112V689H510L499 613H207ZM203 804L392 913L439 836L231 755L203 804Z" />
<glyph unicode="&#xca;" glyph-name="Ecircumflex" d="M207 613V388H461V312H207V75H518V0H112V689H510L499 613H207ZM184 759L144 804L280 915H341L476 804L437 759L310 840L184 759Z" />
<glyph unicode="&#xcb;" glyph-name="Edieresis" d="M207 613V388H461V312H207V75H518V0H112V689H510L499 613H207ZM204 769Q180 769 164 785T147 826Q147 850 163 866T204 882Q229 882 245 866T262 826Q262 801 246 785T204 769ZM414 769Q389 769 373 785T356
826Q356 850 372 866T414 882Q438 882 455 866T472 826Q472 801 455 785T414 769Z" />
<glyph unicode="&#xcc;" glyph-name="Igrave" d="M500 614H348V75H500V0H100V75H252V614H100V689H500V614ZM391 755L182 837L230 914L418 804L391 755Z" />
<glyph unicode="&#xcd;" glyph-name="Iacute" d="M500 614H348V75H500V0H100V75H252V614H100V689H500V614ZM182 804L371 913L418 836L210 755L182 804Z" />
<glyph unicode="&#xce;" glyph-name="Icircumflex" d="M500 614H348V75H500V0H100V75H252V614H100V689H500V614ZM174 759L134 804L270 915H331L466 804L427 759L300 840L174 759Z" />
<glyph unicode="&#xcf;" glyph-name="Idieresis" d="M500 614H348V75H500V0H100V75H252V614H100V689H500V614ZM195 769Q171 769 155 785T138 826Q138 850 154 866T195 882Q220 882 236 866T253 826Q253 801 237 785T195 769ZM405 769Q380 769 364 785T347 826Q347
850 363 866T405 882Q429 882 446 866T463 826Q463 801 446 785T405 769Z" />
<glyph unicode="&#xd0;" glyph-name="Eth" d="M561 348Q561 240 533 172T459 66T358 14T247 0H86V318H14V388H86V689H236Q297 689 355 676T459 626T533 522T561 348ZM460 348Q460 436 442 488T394 568T328 604T257 613H181V388H353V318H181V75H258Q295 75 331
86T395 128T442 211T460 348Z" />
<glyph unicode="&#xd1;" glyph-name="Ntilde" d="M390 0L158 583H154Q155 577 157 553T161 494T165 418T167 336V0H80V689H207L442 103H446Q445 109 443 131T439 187T435 263T433 353V689H520V0H390ZM352 773Q330 773 315 780T287 797T265 813T242 821Q225 821
214 810T191 777L134 802Q149 837 176 864T247 891Q269 891 285 884T313 867L335 850Q345 843 357 843Q374 843 385 854T408 886L465 861Q449 826 422 800T352 773Z" />
<glyph unicode="&#xd2;" glyph-name="Ograve" d="M556 344Q556 265 540 200T492 87T411 14T300 -12Q237 -12 189 13T109 85T60 197T44 343Q44 422 60 487T108 600T189 674T300 701Q363 701 411 676T491 603T540 490T556 344ZM457 344Q457 480 421 551T300 623Q216
623 180 551T143 343Q143 206 180 136T300 66Q384 66 420 136T457 344ZM645 755L436 837L484 914L672 804L645 755Z" />
<glyph unicode="&#xd3;" glyph-name="Oacute" d="M556 344Q556 265 540 200T492 87T411 14T300 -12Q237 -12 189 13T109 85T60 197T44 343Q44 422 60 487T108 600T189 674T300 701Q363 701 411 676T491 603T540 490T556 344ZM457 344Q457 480 421 551T300 623Q216
623 180 551T143 343Q143 206 180 136T300 66Q384 66 420 136T457 344ZM184 804L373 913L420 836L212 755L184 804Z" />
<glyph unicode="&#xd4;" glyph-name="Ocircumflex" d="M556 344Q556 265 540 200T492 87T411 14T300 -12Q237 -12 189 13T109 85T60 197T44 343Q44 422 60 487T108 600T189 674T300 701Q363 701 411 676T491 603T540 490T556 344ZM457 344Q457 480 421 551T300
623Q216 623 180 551T143 343Q143 206 180 136T300 66Q384 66 420 136T457 344ZM174 759L134 804L270 915H331L466 804L427 759L300 840L174 759Z" />
<glyph unicode="&#xd5;" glyph-name="Otilde" d="M556 344Q556 265 540 200T492 87T411 14T300 -12Q237 -12 189 13T109 85T60 197T44 343Q44 422 60 487T108 600T189 674T300 701Q363 701 411 676T491 603T540 490T556 344ZM457 344Q457 480 421 551T300 623Q216
623 180 551T143 343Q143 206 180 136T300 66Q384 66 420 136T457 344ZM353 773Q331 773 316 780T288 797T266 813T243 821Q226 821 215 810T192 777L135 802Q150 837 177 864T248 891Q270 891 286 884T314 867L336 850Q346 843 358 843Q375 843 386 854T409 886L466
861Q450 826 423 800T353 773Z" />
<glyph unicode="&#xd6;" glyph-name="Odieresis" d="M556 344Q556 265 540 200T492 87T411 14T300 -12Q237 -12 189 13T109 85T60 197T44 343Q44 422 60 487T108 600T189 674T300 701Q363 701 411 676T491 603T540 490T556 344ZM457 344Q457 480 421 551T300 623Q216
623 180 551T143 343Q143 206 180 136T300 66Q384 66 420 136T457 344ZM195 769Q171 769 155 785T138 826Q138 850 154 866T195 882Q220 882 236 866T253 826Q253 801 237 785T195 769ZM405 769Q380 769 364 785T347 826Q347 850 363 866T405 882Q429 882 446 866T463
826Q463 801 446 785T405 769Z" />
<glyph unicode="&#xd7;" glyph-name="multiply" d="M244 297L126 415L182 472L300 353L418 472L474 415L356 297L474 179L418 123L300 241L182 123L126 179L244 297Z" />
<glyph unicode="&#xd8;" glyph-name="Oslash" d="M164 28Q104 70 74 151T44 343Q44 422 60 487T108 600T189 674T300 701Q331 701 363 693L400 819L479 798L436 660Q496 617 526 536T556 344Q556 265 540 200T492 87T411 14T300 -12Q283 -12 268 -10T238 -5L200
-131L121 -110L164 28ZM457 344Q457 435 445 494T402 586L253 71Q264 69 275 68T300 66Q384 66 420 136T457 344ZM143 343Q143 252 155 194T198 103L347 617Q326 623 300 623Q216 623 180 551T143 343Z" />
<glyph unicode="&#xd9;" glyph-name="Ugrave" d="M531 224Q531 171 515 128T469 54T396 5T299 -12Q245 -12 202 5T130 53T85 128T69 224V689H164V228Q164 147 198 108T299 68Q435 68 435 228V689H531V224ZM637 755L428 837L476 914L664 804L637 755Z" />
<glyph unicode="&#xda;" glyph-name="Uacute" d="M531 224Q531 171 515 128T469 54T396 5T299 -12Q245 -12 202 5T130 53T85 128T69 224V689H164V228Q164 147 198 108T299 68Q435 68 435 228V689H531V224ZM191 804L380 913L427 836L219 755L191 804Z" />
<glyph unicode="&#xdb;" glyph-name="Ucircumflex" d="M531 224Q531 171 515 128T469 54T396 5T299 -12Q245 -12 202 5T130 53T85 128T69 224V689H164V228Q164 147 198 108T299 68Q435 68 435 228V689H531V224ZM174 759L134 804L270 915H331L466 804L427 759L300
840L174 759Z" />
<glyph unicode="&#xdc;" glyph-name="Udieresis" d="M531 224Q531 171 515 128T469 54T396 5T299 -12Q245 -12 202 5T130 53T85 128T69 224V689H164V228Q164 147 198 108T299 68Q435 68 435 228V689H531V224ZM194 769Q170 769 154 785T137 826Q137 850 153 866T194
882Q219 882 235 866T252 826Q252 801 236 785T194 769ZM404 769Q379 769 363 785T346 826Q346 850 362 866T404 882Q428 882 445 866T462 826Q462 801 445 785T404 769Z" />
<glyph unicode="&#xdd;" glyph-name="Yacute" d="M348 265V0H252V264L20 689H125L301 352H304L481 689H580L348 265ZM192 804L381 913L428 836L220 755L192 804Z" />
<glyph unicode="&#xde;" glyph-name="Thorn" d="M458 353Q458 431 415 465T301 499H197V202H302Q336 202 365 209T414 233T446 280T458 353ZM558 355Q558 295 539 252T484 181T400 140T293 127H197V0H102V689H197V573H291Q418 573 488 520T558 355Z" />
<glyph unicode="&#xdf;" glyph-name="germandbls" d="M92 533Q92 640 145 695T296 750Q336 750 368 740T424 710T460 664T473 605Q473 569 456 546T418 504T380 469T362 429Q362 407 376 391T413 360T461 329T509 291T545 239T560 167Q560 123 545 90T505 34T445
0T372 -12Q332 -12 301 -4T243 22L279 85Q297 74 319 68T363 62Q411 62 438 87T466 163Q466 194 452 216T416 255T370 288T323 321T288 361T273 417Q273 453 290 475T329 515T367 551T385 597Q385 610 381 624T366 651T338 670T295 678Q241 678 213 646T184 539V0H92V533Z"
/>
<glyph unicode="&#xe0;" glyph-name="agrave" d="M482 119Q482 87 492 73T524 52L502 -12Q467 -7 441 10T402 62Q374 24 329 6T236 -12Q156 -12 109 32T62 151Q62 233 127 277T313 321H390V362Q390 418 358 441T267 464Q241 464 206 458T129 437L105 505Q154 523
198 531T281 539Q382 539 432 494T482 367V119ZM261 57Q299 57 333 76T390 130V260H318Q233 260 198 232T163 155Q163 57 261 57ZM641 622L435 715L482 792L670 672L641 622Z" />
<glyph unicode="&#xe1;" glyph-name="aacute" d="M482 119Q482 87 492 73T524 52L502 -12Q467 -7 441 10T402 62Q374 24 329 6T236 -12Q156 -12 109 32T62 151Q62 233 127 277T313 321H390V362Q390 418 358 441T267 464Q241 464 206 458T129 437L105 505Q154 523
198 531T281 539Q382 539 432 494T482 367V119ZM261 57Q299 57 333 76T390 130V260H318Q233 260 198 232T163 155Q163 57 261 57ZM435 672L623 791L670 714L465 622L435 672Z" />
<glyph unicode="&#xe2;" glyph-name="acircumflex" d="M482 119Q482 87 492 73T524 52L502 -12Q467 -7 441 10T402 62Q374 24 329 6T236 -12Q156 -12 109 32T62 151Q62 233 127 277T313 321H390V362Q390 418 358 441T267 464Q241 464 206 458T129 437L105 505Q154
523 198 531T281 539Q382 539 432 494T482 367V119ZM261 57Q299 57 333 76T390 130V260H318Q233 260 198 232T163 155Q163 57 261 57ZM425 627L383 671L519 792H580L715 671L675 627L550 718L425 627Z" />
<glyph unicode="&#xe3;" glyph-name="atilde" d="M482 119Q482 87 492 73T524 52L502 -12Q467 -7 441 10T402 62Q374 24 329 6T236 -12Q156 -12 109 32T62 151Q62 233 127 277T313 321H390V362Q390 418 358 441T267 464Q241 464 206 458T129 437L105 505Q154 523
198 531T281 539Q382 539 432 494T482 367V119ZM261 57Q299 57 333 76T390 130V260H318Q233 260 198 232T163 155Q163 57 261 57ZM603 650Q581 650 566 657T538 674T516 690T493 698Q476 698 465 687T442 654L385 680Q400 715 427 741T498 768Q520 768 536 761T564
744L586 727Q596 720 608 720Q625 720 636 731T659 764L716 739Q701 704 674 677T603 650Z" />
<glyph unicode="&#xe4;" glyph-name="adieresis" d="M482 119Q482 87 492 73T524 52L502 -12Q467 -7 441 10T402 62Q374 24 329 6T236 -12Q156 -12 109 32T62 151Q62 233 127 277T313 321H390V362Q390 418 358 441T267 464Q241 464 206 458T129 437L105 505Q154
523 198 531T281 539Q382 539 432 494T482 367V119ZM261 57Q299 57 333 76T390 130V260H318Q233 260 198 232T163 155Q163 57 261 57ZM449 647Q424 647 408 663T391 703Q391 728 407 744T449 760Q473 760 489 744T506 703Q506 679 490 663T449 647ZM658 647Q634
647 618 663T601 703Q601 728 617 744T658 760Q683 760 699 744T716 703Q716 679 700 663T658 647Z" />
<glyph unicode="&#xe5;" glyph-name="aring" d="M482 119Q482 87 492 73T524 52L502 -12Q467 -7 441 10T402 62Q374 24 329 6T236 -12Q156 -12 109 32T62 151Q62 233 127 277T313 321H390V362Q390 418 358 441T267 464Q241 464 206 458T129 437L105 505Q154 523
198 531T281 539Q382 539 432 494T482 367V119ZM261 57Q299 57 333 76T390 130V260H318Q233 260 198 232T163 155Q163 57 261 57ZM500 722Q500 696 514 681T553 666Q578 666 592 681T606 722Q606 748 592 763T553 778Q529 778 515 763T500 722ZM667 722Q667 678
636 648T553 617Q502 617 471 647T439 722Q439 767 470 797T553 828Q604 828 635 798T667 722Z" />
<glyph unicode="&#xe6;" glyph-name="ae" d="M338 232Q345 144 371 103T449 62Q478 62 500 72T547 101L588 41Q558 17 525 3T447 -12Q393 -12 358 11T297 77Q280 54 264 37T230 9T192 -7T146 -12Q76 -12 35 32T-6 151Q-6 234 47 277T207 321H252V362Q252 417 229
441T161 466Q135 466 113 460T58 439L34 505Q68 521 102 530T170 539Q230 539 261 516T308 453Q322 493 354 516T434 539Q479 539 511 521T565 470T596 388T606 279Q606 265 606 254T604 232H338ZM160 57Q192 57 215 80T265 150Q258 174 255 202T252 260H212Q142
260 116 232T89 156Q89 107 108 82T160 57ZM431 466Q409 466 393 458T366 430T348 378T338 300H520Q518 382 500 424T431 466Z" />
<glyph unicode="&#xe7;" glyph-name="ccedilla" d="M366 -141Q366 -115 343 -107T279 -99L286 -8Q189 7 137 78T85 261Q85 321 102 371T151 459T229 518T336 539Q387 539 432 525T515 480L470 418Q438 442 405 452T336 463Q269 463 227 414T184 261Q184 209 195
172T227 112T275 77T336 66Q369 66 404 76T471 111L515 48Q480 20 436 6T349 -11V-56Q399 -61 421 -85T443 -141Q443 -166 433 -184T406 -215T366 -234T318 -241Q287 -241 260 -234T212 -216L240 -165Q254 -173 272 -177T307 -181Q333 -181 349 -172T366 -141Z"
/>
<glyph unicode="&#xe8;" glyph-name="egrave" d="M171 232Q177 144 219 104T322 63Q358 63 393 73T462 112L504 51Q467 22 419 5T320 -12Q261 -12 216 8T139 64T91 150T75 263Q75 323 91 373T137 460T209 518T305 539Q409 539 467 470T526 279Q526 265 526 253T524
232H171ZM305 466Q251 466 214 426T171 300H437Q435 382 401 424T305 466ZM394 622L188 715L235 792L423 672L394 622Z" />
<glyph unicode="&#xe9;" glyph-name="eacute" d="M171 232Q177 144 219 104T322 63Q358 63 393 73T462 112L504 51Q467 22 419 5T320 -12Q261 -12 216 8T139 64T91 150T75 263Q75 323 91 373T137 460T209 518T305 539Q409 539 467 470T526 279Q526 265 526 253T524
232H171ZM305 466Q251 466 214 426T171 300H437Q435 382 401 424T305 466ZM188 672L376 791L423 714L218 622L188 672Z" />
<glyph unicode="&#xea;" glyph-name="ecircumflex" d="M171 232Q177 144 219 104T322 63Q358 63 393 73T462 112L504 51Q467 22 419 5T320 -12Q261 -12 216 8T139 64T91 150T75 263Q75 323 91 373T137 460T209 518T305 539Q409 539 467 470T526 279Q526 265 526
253T524 232H171ZM305 466Q251 466 214 426T171 300H437Q435 382 401 424T305 466ZM182 627L140 671L276 792H337L472 671L432 627L307 718L182 627Z" />
<glyph unicode="&#xeb;" glyph-name="edieresis" d="M171 232Q177 144 219 104T322 63Q358 63 393 73T462 112L504 51Q467 22 419 5T320 -12Q261 -12 216 8T139 64T91 150T75 263Q75 323 91 373T137 460T209 518T305 539Q409 539 467 470T526 279Q526 265 526
253T524 232H171ZM305 466Q251 466 214 426T171 300H437Q435 382 401 424T305 466ZM201 647Q176 647 160 663T143 703Q143 728 159 744T201 760Q225 760 241 744T258 703Q258 679 242 663T201 647ZM410 647Q386 647 370 663T353 703Q353 728 369 744T410 760Q435
760 451 744T468 703Q468 679 452 663T410 647Z" />
<glyph unicode="&#xec;" glyph-name="igrave" d="M517 0H117V71H278V456H122V527H370V71H517V0ZM623 622L417 715L464 792L652 672L623 622Z" />
<glyph unicode="&#xed;" glyph-name="iacute" d="M517 0H117V71H278V456H122V527H370V71H517V0ZM184 672L372 791L419 714L214 622L184 672Z" />
<glyph unicode="&#xee;" glyph-name="icircumflex" d="M176 627L134 671L270 792H331L466 671L426 627L301 718L176 627ZM517 0H117V71H278V456H122V527H370V71H517V0Z" />
<glyph unicode="&#xef;" glyph-name="idieresis" d="M195 647Q170 647 154 663T137 703Q137 728 153 744T195 760Q219 760 235 744T252 703Q252 679 236 663T195 647ZM404 647Q380 647 364 663T347 703Q347 728 363 744T404 760Q429 760 445 744T462 703Q462 679
446 663T404 647ZM517 0H117V71H278V456H122V527H370V71H517V0Z" />
<glyph unicode="&#xf0;" glyph-name="eth" d="M165 563L243 645Q219 656 191 664T129 680L149 750Q193 741 230 730T298 702L368 776L422 729L361 666Q452 604 493 506T535 265Q535 202 518 151T470 64T394 8T295 -12Q247 -12 205 4T132 52T82 130T64 235Q64 290
81 335T127 413T195 463T275 481Q324 481 363 464T426 420L429 421Q417 478 385 526T305 609L229 531L165 563ZM442 266Q442 300 439 332Q414 370 375 389T289 409Q263 409 240 399T198 368T169 315T158 239Q158 151 196 106T294 61Q363 61 402 112T442 266Z" />
<glyph unicode="&#xf1;" glyph-name="ntilde" d="M97 0V527H176L183 455Q215 496 262 517T356 539Q433 539 468 498T504 383V0H412V323Q412 362 409 389T397 433T371 459T325 467Q304 467 284 460T247 440T214 413T189 382V0H97ZM357 650Q335 650 320 657T292
674T270 690T247 698Q230 698 219 687T196 654L139 680Q154 715 181 741T252 768Q274 768 290 761T318 744L340 727Q350 720 362 720Q379 720 390 731T413 764L470 739Q455 704 428 677T357 650Z" />
<glyph unicode="&#xf2;" glyph-name="ograve" d="M432 264Q432 367 400 416T301 465Q235 465 202 416T168 263Q168 160 201 111T300 62Q366 62 399 111T432 264ZM70 263Q70 324 85 375T129 462T201 519T301 539Q357 539 400 520T472 464T515 378T530 264Q530 203
515 152T471 65T399 8T300 -12Q244 -12 201 7T129 63T85 149T70 263ZM643 622L437 715L484 792L672 672L643 622Z" />
<glyph unicode="&#xf3;" glyph-name="oacute" d="M432 264Q432 367 400 416T301 465Q235 465 202 416T168 263Q168 160 201 111T300 62Q366 62 399 111T432 264ZM70 263Q70 324 85 375T129 462T201 519T301 539Q357 539 400 520T472 464T515 378T530 264Q530 203
515 152T471 65T399 8T300 -12Q244 -12 201 7T129 63T85 149T70 263ZM184 672L372 791L419 714L214 622L184 672Z" />
<glyph unicode="&#xf4;" glyph-name="ocircumflex" d="M432 264Q432 367 400 416T301 465Q235 465 202 416T168 263Q168 160 201 111T300 62Q366 62 399 111T432 264ZM70 263Q70 324 85 375T129 462T201 519T301 539Q357 539 400 520T472 464T515 378T530 264Q530
203 515 152T471 65T399 8T300 -12Q244 -12 201 7T129 63T85 149T70 263ZM176 627L134 671L270 792H331L466 671L426 627L301 718L176 627Z" />
<glyph unicode="&#xf5;" glyph-name="otilde" d="M353 650Q331 650 316 657T288 674T266 690T243 698Q226 698 215 687T192 654L135 680Q150 715 177 741T248 768Q270 768 286 761T314 744L336 727Q346 720 358 720Q375 720 386 731T409 764L466 739Q451 704 424
677T353 650ZM432 264Q432 367 400 416T301 465Q235 465 202 416T168 263Q168 160 201 111T300 62Q366 62 399 111T432 264ZM70 263Q70 324 85 375T129 462T201 519T301 539Q357 539 400 520T472 464T515 378T530 264Q530 203 515 152T471 65T399 8T300 -12Q244
-12 201 7T129 63T85 149T70 263Z" />
<glyph unicode="&#xf6;" glyph-name="odieresis" d="M196 647Q171 647 155 663T138 703Q138 728 154 744T196 760Q220 760 236 744T253 703Q253 679 237 663T196 647ZM405 647Q381 647 365 663T348 703Q348 728 364 744T405 760Q430 760 446 744T463 703Q463 679
447 663T405 647ZM432 264Q432 367 400 416T301 465Q235 465 202 416T168 263Q168 160 201 111T300 62Q366 62 399 111T432 264ZM70 263Q70 324 85 375T129 462T201 519T301 539Q357 539 400 520T472 464T515 378T530 264Q530 203 515 152T471 65T399 8T300 -12Q244
-12 201 7T129 63T85 149T70 263Z" />
<glyph unicode="&#xf7;" glyph-name="divide" d="M112 274V351H488V274H112ZM230 115Q230 144 250 164T300 184Q329 184 349 164T370 115Q370 86 350 66T300 45Q271 45 251 65T230 115ZM230 511Q230 540 250 560T300 580Q329 580 349 560T370 511Q370 482 350
462T300 442Q271 442 251 462T230 511Z" />
<glyph unicode="&#xf8;" glyph-name="oslash" d="M70 263Q70 324 85 375T129 462T201 519T301 539Q313 539 325 538T348 535L386 655L461 633L420 509Q474 477 502 414T530 264Q530 203 515 152T471 65T399 8T300 -12Q287 -12 275 -11T252 -8L215 -131L140 -109L181
17Q126 49 98 112T70 263ZM168 263Q168 137 217 91L332 461Q317 464 301 464Q235 464 202 416T168 263ZM432 264Q432 386 384 433L269 65Q282 62 300 62Q366 62 399 111T432 264Z" />
<glyph unicode="&#xf9;" glyph-name="ugrave" d="M189 527V155Q189 104 209 82T274 60Q316 60 353 84T411 141V527H503V0H424L417 70Q386 30 341 9T249 -12Q172 -12 135 29T97 144V527H189ZM638 622L432 715L479 792L667 672L638 622Z" />
<glyph unicode="&#xfa;" glyph-name="uacute" d="M189 527V155Q189 104 209 82T274 60Q316 60 353 84T411 141V527H503V0H424L417 70Q386 30 341 9T249 -12Q172 -12 135 29T97 144V527H189ZM200 672L388 791L435 714L230 622L200 672Z" />
<glyph unicode="&#xfb;" glyph-name="ucircumflex" d="M189 527V155Q189 104 209 82T274 60Q316 60 353 84T411 141V527H503V0H424L417 70Q386 30 341 9T249 -12Q172 -12 135 29T97 144V527H189ZM176 627L134 671L270 792H331L466 671L426 627L301 718L176 627Z" />
<glyph unicode="&#xfc;" glyph-name="udieresis" d="M189 527V155Q189 104 209 82T274 60Q316 60 353 84T411 141V527H503V0H424L417 70Q386 30 341 9T249 -12Q172 -12 135 29T97 144V527H189ZM196 647Q171 647 155 663T138 703Q138 728 154 744T196 760Q220 760
236 744T253 703Q253 679 237 663T196 647ZM405 647Q381 647 365 663T348 703Q348 728 364 744T405 760Q430 760 446 744T463 703Q463 679 447 663T405 647Z" />
<glyph unicode="&#xfd;" glyph-name="yacute" d="M358 -3Q344 -45 324 -81T276 -144T208 -190T116 -213L103 -141Q143 -134 170 -123T217 -94T248 -54T271 0H240L58 527H156L300 74H304L447 527H542L358 -3ZM200 672L388 791L435 714L230 622L200 672Z" />
<glyph unicode="&#xfe;" glyph-name="thorn" d="M189 463Q218 500 256 519T339 539Q391 539 427 520T487 464T520 377T530 264Q530 204 518 154T480 66T416 9T327 -12Q239 -12 189 48V-202L97 -213V739L189 750V463ZM189 127Q209 96 239 80T305 63Q368 63 400
111T432 264Q432 367 404 416T316 466Q274 466 242 441T189 384V127Z" />
<glyph unicode="&#xff;" glyph-name="ydieresis" d="M358 -3Q344 -45 324 -81T276 -144T208 -190T116 -213L103 -141Q143 -134 170 -123T217 -94T248 -54T271 0H240L58 527H156L300 74H304L447 527H542L358 -3ZM197 647Q172 647 156 663T139 703Q139 728 155 744T197
760Q221 760 237 744T254 703Q254 679 238 663T197 647ZM406 647Q382 647 366 663T349 703Q349 728 365 744T406 760Q431 760 447 744T464 703Q464 679 448 663T406 647Z" />
<glyph unicode="&#x2013;" glyph-name="endash" d="M32 274V352H568V274H32Z" />
<glyph unicode="&#x2014;" glyph-name="emdash" d="M0 274V352H600V274H0Z" />
<glyph unicode="&#x2018;" glyph-name="quoteleft" d="M371 549Q371 517 348 496T293 474Q261 474 239 495T216 549Q216 563 219 578T235 619L316 789H384L343 606Q356 597 363 582T371 549Z" />
<glyph unicode="&#x2019;" glyph-name="quoteright" d="M228 714Q228 746 251 767T306 789Q338 789 361 768T384 714Q384 699 380 685T364 644L283 474H215L256 657Q243 666 236 681T228 714Z" />
<glyph unicode="&#x201a;" glyph-name="quotesinglbase" d="M228 58Q228 90 251 111T306 133Q338 133 361 112T384 58Q384 43 380 29T364 -12L283 -182H215L256 1Q243 10 236 25T228 58Z" />
<glyph unicode="&#x201c;" glyph-name="quotedblleft" d="M262 549Q262 517 239 496T184 474Q151 474 129 495T107 549Q107 563 110 578T126 619L206 789H275L234 606Q247 597 254 582T262 549ZM480 549Q480 517 457 496T402 474Q370 474 348 495T325 549Q325
563 328 578T344 619L425 789H493L452 606Q465 597 472 582T480 549Z" />
<glyph unicode="&#x201d;" glyph-name="quotedblright" d="M119 714Q119 746 142 767T197 789Q229 789 252 768T275 714Q275 699 271 685T254 644L174 474H106L146 657Q134 666 127 681T119 714ZM337 714Q337 746 360 767T415 789Q447 789 470 768T493 714Q493
699 489 685T473 644L392 474H324L365 657Q352 666 345 681T337 714Z" />
<glyph unicode="&#x201e;" glyph-name="quotedblbase" d="M120 58Q120 90 143 111T198 133Q230 133 253 112T276 58Q276 43 272 29T256 -12L175 -182H107L148 1Q135 10 128 25T120 58ZM337 58Q337 90 360 111T415 133Q447 133 469 112T492 58Q492 43 488 28T473
-12L392 -182H324L365 1Q352 10 345 25T337 58Z" />
<glyph unicode="&#x2022;" glyph-name="bullet" d="M300 218Q246 218 211 253T176 342Q176 396 211 430T300 465Q354 465 389 430T424 341Q424 287 389 253T300 218Z" />
<glyph unicode="&#x2039;" glyph-name="guilsinglleft" d="M415 86L360 51L185 260V325L360 535L415 500L282 293L415 86Z" />
<glyph unicode="&#x203a;" glyph-name="guilsinglright" d="M318 293L185 500L240 535L415 325V260L240 51L185 86L318 293Z" />
</font>
</defs>
</svg>
